<?xml version="1.0" encoding="utf-8"?>
<!-- Generator: Adobe Illustrator 24.0.1, SVG Export Plug-In . SVG Version: 6.00 Build 0)  -->
<svg version="1.1" id="Layer_1" xmlns="http://www.w3.org/2000/svg" xmlns:xlink="http://www.w3.org/1999/xlink" x="0px" y="0px"
	 width="313.7px" height="93.1px" viewBox="0 0 313.7 93.1" style="enable-background:new 0 0 313.7 93.1;" xml:space="preserve">
<style type="text/css">
	.st0{fill:#F20F0F;}
	.st1{fill:#6945FF;}
	.st2{fill:#FF0F53;}
	.st3{fill:#FF1053;}
	.st4{fill:#FF1152;}
	.st5{fill:#FF1252;}
	.st6{fill:#FF1351;}
	.st7{fill:#FF1451;}
	.st8{fill:#FF1551;}
	.st9{fill:#FF1650;}
	.st10{fill:#FF1750;}
	.st11{fill:#FF184F;}
	.st12{fill:#FF194F;}
	.st13{fill:#FF1A4F;}
	.st14{fill:#FF1B4E;}
	.st15{fill:#FF1C4E;}
	.st16{fill:#FF1D4D;}
	.st17{fill:#FF1E4D;}
	.st18{fill:#FF1F4C;}
	.st19{fill:#FF204C;}
	.st20{fill:#FF214C;}
	.st21{fill:#FF224B;}
	.st22{fill:#FF234B;}
	.st23{fill:#FF244A;}
	.st24{fill:#FF254A;}
	.st25{fill:#FF264A;}
	.st26{fill:#FF2749;}
	.st27{fill:#FF2849;}
	.st28{fill:#FF2948;}
	.st29{fill:#FF2A48;}
	.st30{fill:#FF2B48;}
	.st31{fill:#FF2C47;}
	.st32{fill:#FF2D47;}
	.st33{fill:#FF2E46;}
	.st34{fill:#FF2F46;}
	.st35{fill:#FF3046;}
	.st36{fill:#FF3145;}
	.st37{fill:#FF3245;}
	.st38{fill:#FF3344;}
	.st39{fill:#FF3444;}
	.st40{fill:#FF3543;}
	.st41{fill:#FF3643;}
	.st42{fill:#FF3743;}
	.st43{fill:#FF3842;}
	.st44{fill:#FF3942;}
	.st45{fill:#FF3A41;}
	.st46{fill:#FF3B41;}
	.st47{fill:#FF3C41;}
	.st48{fill:#FF3D40;}
	.st49{fill:#FF3E40;}
	.st50{fill:#FF3F3F;}
	.st51{fill:#FF403F;}
	.st52{fill:#FF413F;}
	.st53{fill:#FF423E;}
	.st54{fill:#FF433E;}
	.st55{fill:#FF443D;}
	.st56{fill:#FF453D;}
	.st57{fill:#FF463D;}
	.st58{fill:#FF473C;}
	.st59{fill:#FF483C;}
	.st60{fill:#FF493B;}
	.st61{fill:#FF4A3B;}
	.st62{fill:#FF4B3A;}
	.st63{fill:#FF4C3A;}
	.st64{fill:#FF4D3A;}
	.st65{fill:#FF4E39;}
	.st66{fill:#FF4F39;}
	.st67{fill:#FF5038;}
	.st68{fill:#FF5138;}
	.st69{fill:#FF5238;}
	.st70{fill:#FF5337;}
	.st71{fill:#FF5437;}
	.st72{fill:#FF5536;}
	.st73{fill:#FF5636;}
	.st74{fill:#FF5736;}
	.st75{fill:#FF5835;}
	.st76{fill:#FF5935;}
	.st77{fill:#FF5A34;}
	.st78{fill:#FF5B34;}
	.st79{fill:#FF5C34;}
	.st80{fill:#FF5D33;}
	.st81{fill:#FF5E33;}
	.st82{fill:#FF5F32;}
	.st83{fill:#FF6032;}
	.st84{fill:#FF6131;}
	.st85{fill:#FF6231;}
	.st86{fill:#FF6331;}
	.st87{fill:#FF6430;}
	.st88{fill:#FF6530;}
	.st89{fill:#FF662F;}
	.st90{fill:#FF672F;}
	.st91{fill:#FF682F;}
	.st92{fill:#FF692E;}
	.st93{fill:#FF6A2E;}
	.st94{fill:#FF6B2D;}
	.st95{fill:#FF6C2D;}
	.st96{fill:#FF6D2D;}
	.st97{fill:#FF6E2C;}
	.st98{fill:#FF6F2C;}
	.st99{fill:#FF702B;}
	.st100{fill:#FF712B;}
	.st101{fill:#FF722B;}
	.st102{fill:#FF732A;}
	.st103{fill:#FF742A;}
	.st104{fill:#FF7529;}
	.st105{fill:#FF7629;}
	.st106{fill:#FF7728;}
	.st107{fill:#FF7828;}
	.st108{fill:#FF7928;}
	.st109{fill:#FF7A27;}
	.st110{fill:#FF7B27;}
	.st111{fill:#FF7C26;}
	.st112{fill:#FF7D26;}
	.st113{fill:#FF7E26;}
	.st114{fill:#FF7F25;}
	.st115{fill:#FF8025;}
	.st116{fill:#FF8124;}
	.st117{fill:#FF8224;}
	.st118{fill:#FF8324;}
	.st119{fill:#FF8423;}
	.st120{fill:#FF8523;}
	.st121{fill:#FF8622;}
	.st122{fill:#FF8722;}
	.st123{fill:#FF8822;}
	.st124{fill:#FF8921;}
	.st125{fill:#FF8A21;}
	.st126{fill:#FF8B20;}
	.st127{fill:#FF8C20;}
	.st128{fill:#FF8D1F;}
	.st129{fill:#FF8E1F;}
	.st130{fill:#FF8F1F;}
	.st131{fill:#FF901E;}
	.st132{fill:#FF911E;}
	.st133{fill:#FF921D;}
	.st134{fill:#FF931D;}
	.st135{fill:#FF941D;}
	.st136{fill:#FF951C;}
	.st137{fill:#FF961C;}
	.st138{fill:#FF971B;}
	.st139{fill:#FF981B;}
	.st140{fill:#FF991B;}
	.st141{fill:#FF9A1A;}
	.st142{fill:#FF9B1A;}
	.st143{fill:#FF9C19;}
	.st144{fill:#FF9D19;}
	.st145{fill:#FF9E19;}
	.st146{fill:#FF9F18;}
	.st147{fill:#FFA018;}
	.st148{fill:#FFA117;}
	.st149{fill:#FFA217;}
	.st150{fill:#FFA316;}
	.st151{fill:#FFA416;}
	.st152{fill:#FFA516;}
	.st153{fill:#FFA615;}
	.st154{fill:#FFA715;}
	.st155{fill:#FFA814;}
	.st156{fill:#FFA914;}
	.st157{fill:#FFAA14;}
	.st158{fill:#FFAB13;}
	.st159{fill:#FFAC13;}
	.st160{fill:#FFAD12;}
	.st161{fill:#FFAE12;}
	.st162{fill:#FFAF12;}
	.st163{fill:#FFB011;}
	.st164{fill:#FFB111;}
	.st165{fill:#FFB210;}
	.st166{fill:#FFB310;}
	.st167{fill:#FFB410;}
	.st168{fill:#FFB50F;}
	.st169{fill:#FFB60F;}
	.st170{fill:#FFB70E;}
	.st171{fill:#FFB80E;}
	.st172{fill:#FFB90D;}
	.st173{fill:#FFBA0D;}
	.st174{fill:#FFBB0D;}
	.st175{fill:#FFBC0C;}
	.st176{fill:#FFBD0C;}
	.st177{fill:#FFBE0B;}
	.st178{fill:#FFBF0B;}
	.st179{fill:#FFC00B;}
	.st180{fill:#FFC10A;}
	.st181{fill:#FFC20A;}
	.st182{fill:#FFC309;}
	.st183{fill:#FFC409;}
	.st184{fill:#FFC509;}
	.st185{fill:#FFC608;}
	.st186{fill:#FFC708;}
	.st187{fill:#FFC807;}
	.st188{fill:#FFC907;}
	.st189{fill:#FFCA07;}
	.st190{fill:#FFCB06;}
	.st191{fill:#FFCC06;}
	.st192{fill:#FFCD05;}
	.st193{fill:#FFCE05;}
	.st194{fill:#FFCF04;}
	.st195{fill:#FFD004;}
	.st196{fill:#FFD104;}
	.st197{fill:#FFD203;}
	.st198{fill:#FFD303;}
	.st199{fill:#FFD402;}
	.st200{fill:#FFD502;}
	.st201{fill:#FFD602;}
	.st202{fill:#FFD701;}
	.st203{fill:#FFD801;}
	.st204{fill:#FFD900;}
	.st205{fill:#FFDA00;}
	.st206{fill:#FED901;}
	.st207{fill:#FED902;}
	.st208{fill:#FDD803;}
	.st209{fill:#FDD804;}
	.st210{fill:#FCD705;}
	.st211{fill:#FBD606;}
	.st212{fill:#FBD607;}
	.st213{fill:#FAD508;}
	.st214{fill:#FAD509;}
	.st215{fill:#F9D40A;}
	.st216{fill:#F9D40B;}
	.st217{fill:#F8D30C;}
	.st218{fill:#F7D20D;}
	.st219{fill:#F7D20E;}
	.st220{fill:#F6D10F;}
	.st221{fill:#F6D110;}
	.st222{fill:#F5D011;}
	.st223{fill:#F4CF12;}
	.st224{fill:#F4CF13;}
	.st225{fill:#F3CE14;}
	.st226{fill:#F3CE15;}
	.st227{fill:#F2CD16;}
	.st228{fill:#F1CD17;}
	.st229{fill:#F1CC18;}
	.st230{fill:#F0CB19;}
	.st231{fill:#F0CB1A;}
	.st232{fill:#EFCA1B;}
	.st233{fill:#EFCA1C;}
	.st234{fill:#EEC91D;}
	.st235{fill:#EDC81E;}
	.st236{fill:#EDC81F;}
	.st237{fill:#ECC720;}
	.st238{fill:#ECC721;}
	.st239{fill:#EBC622;}
	.st240{fill:#EAC623;}
	.st241{fill:#EAC524;}
	.st242{fill:#E9C425;}
	.st243{fill:#E9C426;}
	.st244{fill:#E8C327;}
	.st245{fill:#E7C328;}
	.st246{fill:#E7C229;}
	.st247{fill:#E6C12A;}
	.st248{fill:#E6C12B;}
	.st249{fill:#E5C02C;}
	.st250{fill:#E5C02D;}
	.st251{fill:#E4BF2E;}
	.st252{fill:#E3BF2F;}
	.st253{fill:#E3BE30;}
	.st254{fill:#E2BD31;}
	.st255{fill:#E2BD32;}
	.st256{fill:#E1BC33;}
	.st257{fill:#E0BC34;}
	.st258{fill:#E0BB35;}
	.st259{fill:#DFBA36;}
	.st260{fill:#DFBA37;}
	.st261{fill:#DEB938;}
	.st262{fill:#DDB939;}
	.st263{fill:#DDB83A;}
	.st264{fill:#DCB83B;}
	.st265{fill:#DCB73C;}
	.st266{fill:#DBB63D;}
	.st267{fill:#DBB63E;}
	.st268{fill:#DAB53F;}
	.st269{fill:#D9B540;}
	.st270{fill:#D9B441;}
	.st271{fill:#D8B342;}
	.st272{fill:#D8B343;}
	.st273{fill:#D7B244;}
	.st274{fill:#D6B245;}
	.st275{fill:#D6B146;}
	.st276{fill:#D5B147;}
	.st277{fill:#D5B048;}
	.st278{fill:#D4AF49;}
	.st279{fill:#D3AF4A;}
	.st280{fill:#D3AE4B;}
	.st281{fill:#D2AE4C;}
	.st282{fill:#D2AD4D;}
	.st283{fill:#D1AC4E;}
	.st284{fill:#D1AC4F;}
	.st285{fill:#D0AB50;}
	.st286{fill:#CFAB51;}
	.st287{fill:#CFAA52;}
	.st288{fill:#CEAA53;}
	.st289{fill:#CEA954;}
	.st290{fill:#CDA855;}
	.st291{fill:#CCA856;}
	.st292{fill:#CCA757;}
	.st293{fill:#CBA758;}
	.st294{fill:#CBA659;}
	.st295{fill:#CAA55A;}
	.st296{fill:#C9A55B;}
	.st297{fill:#C9A45C;}
	.st298{fill:#C8A45D;}
	.st299{fill:#C8A35E;}
	.st300{fill:#C7A25F;}
	.st301{fill:#C7A260;}
	.st302{fill:#C6A161;}
	.st303{fill:#C5A162;}
	.st304{fill:#C5A063;}
	.st305{fill:#C4A064;}
	.st306{fill:#C49F65;}
	.st307{fill:#C39E66;}
	.st308{fill:#C29E67;}
	.st309{fill:#C29D68;}
	.st310{fill:#C19D69;}
	.st311{fill:#C19C6A;}
	.st312{fill:#C09B6B;}
	.st313{fill:#BF9B6C;}
	.st314{fill:#BF9A6D;}
	.st315{fill:#BE9A6E;}
	.st316{fill:#BE996F;}
	.st317{fill:#BD9970;}
	.st318{fill:#BD9871;}
	.st319{fill:#BC9772;}
	.st320{fill:#BB9773;}
	.st321{fill:#BB9674;}
	.st322{fill:#BA9675;}
	.st323{fill:#BA9576;}
	.st324{fill:#B99477;}
	.st325{fill:#B89478;}
	.st326{fill:#B89379;}
	.st327{fill:#B7937A;}
	.st328{fill:#B7927B;}
	.st329{fill:#B6927C;}
	.st330{fill:#B5917D;}
	.st331{fill:#B5907E;}
	.st332{fill:#B4907F;}
	.st333{fill:#B48F80;}
	.st334{fill:#B38F81;}
	.st335{fill:#B38E82;}
	.st336{fill:#B28D83;}
	.st337{fill:#B18D84;}
	.st338{fill:#B18C85;}
	.st339{fill:#B08C86;}
	.st340{fill:#B08B87;}
	.st341{fill:#AF8B88;}
	.st342{fill:#AE8A89;}
	.st343{fill:#AE898A;}
	.st344{fill:#AD898B;}
	.st345{fill:#AD888C;}
	.st346{fill:#AC888D;}
	.st347{fill:#AB878E;}
	.st348{fill:#AB868F;}
	.st349{fill:#AA8690;}
	.st350{fill:#AA8591;}
	.st351{fill:#A98592;}
	.st352{fill:#A98493;}
	.st353{fill:#A88494;}
	.st354{fill:#A78395;}
	.st355{fill:#A78296;}
	.st356{fill:#A68297;}
	.st357{fill:#A68198;}
	.st358{fill:#A58199;}
	.st359{fill:#A4809A;}
	.st360{fill:#A47F9B;}
	.st361{fill:#A37F9C;}
	.st362{fill:#A37E9D;}
	.st363{fill:#A27E9E;}
	.st364{fill:#A17D9F;}
	.st365{fill:#A17DA0;}
	.st366{fill:#A07CA1;}
	.st367{fill:#A07BA2;}
	.st368{fill:#9F7BA3;}
	.st369{fill:#9F7AA4;}
	.st370{fill:#9E7AA5;}
	.st371{fill:#9D79A6;}
	.st372{fill:#9D78A7;}
	.st373{fill:#9C78A8;}
	.st374{fill:#9C77A9;}
	.st375{fill:#9B77AA;}
	.st376{fill:#9A76AB;}
	.st377{fill:#9A75AC;}
	.st378{fill:#9975AD;}
	.st379{fill:#9974AE;}
	.st380{fill:#9874AF;}
	.st381{fill:#9773B0;}
	.st382{fill:#9773B1;}
	.st383{fill:#9672B2;}
	.st384{fill:#9671B3;}
	.st385{fill:#9571B4;}
	.st386{fill:#9570B5;}
	.st387{fill:#9470B6;}
	.st388{fill:#936FB7;}
	.st389{fill:#936EB8;}
	.st390{fill:#926EB9;}
	.st391{fill:#926DBA;}
	.st392{fill:#916DBB;}
	.st393{fill:#906CBC;}
	.st394{fill:#906CBD;}
	.st395{fill:#8F6BBE;}
	.st396{fill:#8F6ABF;}
	.st397{fill:#8E6AC0;}
	.st398{fill:#8D69C1;}
	.st399{fill:#8D69C2;}
	.st400{fill:#8C68C3;}
	.st401{fill:#8C67C4;}
	.st402{fill:#8B67C5;}
	.st403{fill:#8B66C6;}
	.st404{fill:#8A66C7;}
	.st405{fill:#8965C8;}
	.st406{fill:#8965C9;}
	.st407{fill:#8864CA;}
	.st408{fill:#8863CB;}
	.st409{fill:#8763CC;}
	.st410{fill:#8662CD;}
	.st411{fill:#8662CE;}
	.st412{fill:#8561CF;}
	.st413{fill:#8560D0;}
	.st414{fill:#8460D1;}
	.st415{fill:#835FD2;}
	.st416{fill:#835FD3;}
	.st417{fill:#825ED4;}
	.st418{fill:#825ED5;}
	.st419{fill:#815DD6;}
	.st420{fill:#815CD7;}
	.st421{fill:#805CD8;}
	.st422{fill:#7F5BD9;}
	.st423{fill:#7F5BDA;}
	.st424{fill:#7E5ADB;}
	.st425{fill:#7E59DC;}
	.st426{fill:#7D59DD;}
	.st427{fill:#7C58DE;}
	.st428{fill:#7C58DF;}
	.st429{fill:#7B57E0;}
	.st430{fill:#7B57E1;}
	.st431{fill:#7A56E2;}
	.st432{fill:#7955E3;}
	.st433{fill:#7955E4;}
	.st434{fill:#7854E5;}
	.st435{fill:#7854E6;}
	.st436{fill:#7753E7;}
	.st437{fill:#7752E8;}
	.st438{fill:#7652E9;}
	.st439{fill:#7551EA;}
	.st440{fill:#7551EB;}
	.st441{fill:#7450EC;}
	.st442{fill:#7450ED;}
	.st443{fill:#734FEE;}
	.st444{fill:#724EEF;}
	.st445{fill:#724EF0;}
	.st446{fill:#714DF1;}
	.st447{fill:#714DF2;}
	.st448{fill:#704CF3;}
	.st449{fill:#6F4BF4;}
	.st450{fill:#6F4BF5;}
	.st451{fill:#6E4AF6;}
	.st452{fill:#6E4AF7;}
	.st453{fill:#6D49F8;}
	.st454{fill:#6D49F9;}
	.st455{fill:#6C48FA;}
	.st456{fill:#6B47FB;}
	.st457{fill:#6B47FC;}
	.st458{fill:#6A46FD;}
	.st459{fill:#6A46FE;}
	.st460{fill:#FFFFFF;}
	.st461{fill:#5E5E5E;}
	.st462{fill:#5F5F5F;}
	.st463{fill:#606060;}
	.st464{fill:#616161;}
	.st465{fill:#626262;}
	.st466{fill:#636363;}
	.st467{fill:#646464;}
	.st468{fill:#656565;}
	.st469{fill:#666666;}
	.st470{fill:#676767;}
	.st471{fill:#686868;}
	.st472{fill:#696969;}
	.st473{fill:#6A6A6A;}
	.st474{fill:#6B6B6B;}
	.st475{fill:#6C6C6C;}
	.st476{fill:#6D6D6D;}
	.st477{fill:#6E6E6E;}
	.st478{fill:#6F6F6F;}
	.st479{fill:#707070;}
	.st480{fill:#717171;}
	.st481{fill:#727272;}
	.st482{fill:#737373;}
	.st483{fill:#747474;}
	.st484{fill:#757575;}
	.st485{fill:#767676;}
	.st486{fill:#777777;}
	.st487{fill:#787878;}
	.st488{fill:#797979;}
	.st489{fill:#7A7A7A;}
	.st490{fill:#7B7B7B;}
	.st491{fill:#7C7C7C;}
	.st492{fill:#7D7D7D;}
	.st493{fill:#7E7E7E;}
	.st494{fill:#7F7F7F;}
	.st495{fill:#808080;}
	.st496{fill:#818181;}
	.st497{fill:#828282;}
	.st498{fill:#838383;}
	.st499{fill:#848484;}
	.st500{fill:#858585;}
	.st501{fill:#868686;}
	.st502{fill:#878787;}
	.st503{fill:#888888;}
	.st504{fill:#898989;}
	.st505{fill:#8A8A8A;}
	.st506{fill:#8B8B8B;}
	.st507{fill:#8C8C8C;}
	.st508{fill:#8D8D8D;}
	.st509{fill:#8E8E8E;}
	.st510{fill:#8F8F8F;}
	.st511{fill:#909090;}
	.st512{fill:#919191;}
	.st513{fill:#929292;}
	.st514{fill:#939393;}
	.st515{fill:#949494;}
	.st516{fill:#959595;}
	.st517{fill:#969696;}
	.st518{fill:#979797;}
	.st519{fill:#989898;}
	.st520{fill:#999999;}
	.st521{fill:#9A9A9A;}
	.st522{fill:#9B9B9B;}
	.st523{fill:#9C9C9C;}
	.st524{fill:#9D9D9D;}
	.st525{fill:#9E9E9E;}
	.st526{fill:#9F9F9F;}
	.st527{fill:#A0A0A0;}
	.st528{fill:#A1A1A1;}
	.st529{fill:#A2A2A2;}
	.st530{fill:#A3A3A3;}
	.st531{fill:#A4A4A4;}
	.st532{fill:#A5A5A5;}
	.st533{fill:#A6A6A6;}
	.st534{fill:#A7A7A7;}
	.st535{fill:#A8A8A8;}
	.st536{fill:#A9A9A9;}
	.st537{fill:#AAAAAA;}
	.st538{fill:#ABABAB;}
	.st539{fill:#ACACAC;}
	.st540{fill:#ADADAD;}
	.st541{fill:#AEAEAE;}
	.st542{fill:#AFAFAF;}
	.st543{fill:#B0B0B0;}
	.st544{fill:#B1B1B1;}
	.st545{fill:#B2B2B2;}
	.st546{fill:#B3B3B3;}
	.st547{fill:#B4B4B4;}
	.st548{fill:#B5B5B5;}
	.st549{fill:#B6B6B6;}
	.st550{fill:#B7B7B7;}
	.st551{fill:#B8B8B8;}
	.st552{fill:#B9B9B9;}
	.st553{fill:#BABABA;}
	.st554{fill:#BBBBBB;}
	.st555{fill:#BCBCBC;}
	.st556{fill:#BDBDBD;}
	.st557{fill:#BEBEBE;}
	.st558{fill:#BFBFBF;}
	.st559{fill:#C0C0C0;}
	.st560{fill:#C1C1C1;}
	.st561{fill:#C2C2C2;}
	.st562{fill:#C3C3C3;}
	.st563{fill:#C4C4C4;}
	.st564{fill:#C5C5C5;}
	.st565{fill:#C6C6C6;}
	.st566{fill:#C7C7C7;}
	.st567{fill:#C8C8C8;}
	.st568{fill:#C9C9C9;}
	.st569{fill:#CACACA;}
	.st570{fill:#CBCBCB;}
	.st571{fill:#CCCCCC;}
	.st572{fill:#CDCDCD;}
	.st573{fill:none;stroke:#6945FF;stroke-miterlimit:10;}
	.st574{opacity:0.9915;fill:#FFFFFF;}
	.st575{opacity:0.9831;fill:#FFFFFF;}
	.st576{opacity:0.9746;fill:#FFFFFF;}
	.st577{opacity:0.9662;fill:#FFFFFF;}
	.st578{opacity:0.9577;fill:#FFFFFF;}
	.st579{opacity:0.9493;fill:#FFFFFF;}
	.st580{opacity:0.9408;fill:#FFFFFF;}
	.st581{opacity:0.9324;fill:#FFFFFF;}
	.st582{opacity:0.9239;fill:#FFFFFF;}
	.st583{opacity:0.9155;fill:#FFFFFF;}
	.st584{opacity:0.907;fill:#FFFFFF;}
	.st585{opacity:0.8986;fill:#FFFFFF;}
	.st586{opacity:0.8901;fill:#FFFFFF;}
	.st587{opacity:0.8817;fill:#FFFFFF;}
	.st588{opacity:0.8732;fill:#FFFFFF;}
	.st589{opacity:0.8648;fill:#FFFFFF;}
	.st590{opacity:0.8563;fill:#FFFFFF;}
	.st591{opacity:0.8479;fill:#FFFFFF;}
	.st592{opacity:0.8394;fill:#FFFFFF;}
	.st593{opacity:0.831;fill:#FFFFFF;}
	.st594{opacity:0.8225;fill:#FFFFFF;}
	.st595{opacity:0.8141;fill:#FFFFFF;}
	.st596{opacity:0.8056;fill:#FFFFFF;}
	.st597{opacity:0.7972;fill:#FFFFFF;}
	.st598{opacity:0.7887;fill:#FFFFFF;}
	.st599{opacity:0.7803;fill:#FFFFFF;}
	.st600{opacity:0.7718;fill:#FFFFFF;}
	.st601{opacity:0.7634;fill:#FFFFFF;}
	.st602{opacity:0.7549;fill:#FFFFFF;}
	.st603{opacity:0.7465;fill:#FFFFFF;}
	.st604{opacity:0.738;fill:#FFFFFF;}
	.st605{opacity:0.7296;fill:#FFFFFF;}
	.st606{opacity:0.7211;fill:#FFFFFF;}
	.st607{opacity:0.7127;fill:#FFFFFF;}
	.st608{opacity:0.7042;fill:#FFFFFF;}
	.st609{opacity:0.6958;fill:#FFFFFF;}
	.st610{opacity:0.6873;fill:#FFFFFF;}
	.st611{opacity:0.6789;fill:#FFFFFF;}
	.st612{opacity:0.6704;fill:#FFFFFF;}
	.st613{opacity:0.662;fill:#FFFFFF;}
	.st614{opacity:0.6535;fill:#FFFFFF;}
	.st615{opacity:0.6451;fill:#FFFFFF;}
	.st616{opacity:0.6366;fill:#FFFFFF;}
	.st617{opacity:0.6282;fill:#FFFFFF;}
	.st618{opacity:0.6197;fill:#FFFFFF;}
	.st619{opacity:0.6113;fill:#FFFFFF;}
	.st620{opacity:0.6028;fill:#FFFFFF;}
	.st621{opacity:0.5944;fill:#FFFFFF;}
	.st622{opacity:0.5859;fill:#FFFFFF;}
	.st623{opacity:0.5775;fill:#FFFFFF;}
	.st624{opacity:0.569;fill:#FFFFFF;}
	.st625{opacity:0.5606;fill:#FFFFFF;}
	.st626{opacity:0.5521;fill:#FFFFFF;}
	.st627{opacity:0.5437;fill:#FFFFFF;}
	.st628{opacity:0.5352;fill:#FFFFFF;}
	.st629{opacity:0.5268;fill:#FFFFFF;}
	.st630{opacity:0.5183;fill:#FFFFFF;}
	.st631{opacity:0.5099;fill:#FFFFFF;}
	.st632{opacity:0.5014;fill:#FFFFFF;}
	.st633{opacity:0.493;fill:#FFFFFF;}
	.st634{opacity:0.4845;fill:#FFFFFF;}
	.st635{opacity:0.4761;fill:#FFFFFF;}
	.st636{opacity:0.4676;fill:#FFFFFF;}
	.st637{opacity:0.4592;fill:#FFFFFF;}
	.st638{opacity:0.4507;fill:#FFFFFF;}
	.st639{opacity:0.4423;fill:#FFFFFF;}
	.st640{opacity:0.4338;fill:#FFFFFF;}
	.st641{opacity:0.4254;fill:#FFFFFF;}
	.st642{opacity:0.4169;fill:#FFFFFF;}
	.st643{opacity:0.4085;fill:#FFFFFF;}
	.st644{opacity:0.4;fill:#FFFFFF;}
	.st645{opacity:0.5;fill:#FFFFFF;}
	.st646{opacity:0.5028;fill:#FFFFFF;}
	.st647{opacity:0.5042;fill:#FFFFFF;}
	.st648{opacity:0.5056;fill:#FFFFFF;}
	.st649{opacity:0.507;fill:#FFFFFF;}
	.st650{opacity:0.5085;fill:#FFFFFF;}
	.st651{opacity:0.5113;fill:#FFFFFF;}
	.st652{opacity:0.5127;fill:#FFFFFF;}
	.st653{opacity:0.5141;fill:#FFFFFF;}
	.st654{opacity:0.5155;fill:#FFFFFF;}
	.st655{opacity:0.5169;fill:#FFFFFF;}
	.st656{opacity:0.5197;fill:#FFFFFF;}
	.st657{opacity:0.5211;fill:#FFFFFF;}
	.st658{opacity:0.5225;fill:#FFFFFF;}
	.st659{opacity:0.5239;fill:#FFFFFF;}
	.st660{opacity:0.5254;fill:#FFFFFF;}
	.st661{opacity:0.5282;fill:#FFFFFF;}
	.st662{opacity:0.5296;fill:#FFFFFF;}
	.st663{opacity:0.531;fill:#FFFFFF;}
	.st664{opacity:0.5324;fill:#FFFFFF;}
	.st665{opacity:0.5338;fill:#FFFFFF;}
	.st666{opacity:0.5366;fill:#FFFFFF;}
	.st667{opacity:0.538;fill:#FFFFFF;}
	.st668{opacity:0.5394;fill:#FFFFFF;}
	.st669{opacity:0.5408;fill:#FFFFFF;}
	.st670{opacity:0.5423;fill:#FFFFFF;}
	.st671{opacity:0.5451;fill:#FFFFFF;}
	.st672{opacity:0.5465;fill:#FFFFFF;}
	.st673{opacity:0.5479;fill:#FFFFFF;}
	.st674{opacity:0.5493;fill:#FFFFFF;}
	.st675{opacity:0.5507;fill:#FFFFFF;}
	.st676{opacity:0.5535;fill:#FFFFFF;}
	.st677{opacity:0.5549;fill:#FFFFFF;}
	.st678{opacity:0.5563;fill:#FFFFFF;}
	.st679{opacity:0.5577;fill:#FFFFFF;}
	.st680{opacity:0.5592;fill:#FFFFFF;}
	.st681{opacity:0.562;fill:#FFFFFF;}
	.st682{opacity:0.5634;fill:#FFFFFF;}
	.st683{opacity:0.5648;fill:#FFFFFF;}
	.st684{opacity:0.5662;fill:#FFFFFF;}
	.st685{opacity:0.5676;fill:#FFFFFF;}
	.st686{opacity:0.5704;fill:#FFFFFF;}
	.st687{opacity:0.5718;fill:#FFFFFF;}
	.st688{opacity:0.5732;fill:#FFFFFF;}
	.st689{opacity:0.5746;fill:#FFFFFF;}
	.st690{opacity:0.5761;fill:#FFFFFF;}
	.st691{opacity:0.5789;fill:#FFFFFF;}
	.st692{opacity:0.5803;fill:#FFFFFF;}
	.st693{opacity:0.5817;fill:#FFFFFF;}
	.st694{opacity:0.5831;fill:#FFFFFF;}
	.st695{opacity:0.5845;fill:#FFFFFF;}
	.st696{opacity:0.5873;fill:#FFFFFF;}
	.st697{opacity:0.5887;fill:#FFFFFF;}
	.st698{opacity:0.5901;fill:#FFFFFF;}
	.st699{opacity:0.5915;fill:#FFFFFF;}
	.st700{opacity:0.593;fill:#FFFFFF;}
	.st701{opacity:0.5958;fill:#FFFFFF;}
	.st702{opacity:0.5972;fill:#FFFFFF;}
	.st703{opacity:0.5986;fill:#FFFFFF;}
	.st704{opacity:0.6;fill:#FFFFFF;}
	.st705{opacity:0.6056;fill:#FFFFFF;}
	.st706{opacity:0.6169;fill:#FFFFFF;}
	.st707{opacity:0.6225;fill:#FFFFFF;}
	.st708{opacity:0.6338;fill:#FFFFFF;}
	.st709{opacity:0.6394;fill:#FFFFFF;}
	.st710{opacity:0.6507;fill:#FFFFFF;}
	.st711{opacity:0.6563;fill:#FFFFFF;}
	.st712{opacity:0.6676;fill:#FFFFFF;}
	.st713{opacity:0.6732;fill:#FFFFFF;}
	.st714{opacity:0.6845;fill:#FFFFFF;}
	.st715{opacity:0.6901;fill:#FFFFFF;}
	.st716{opacity:0.7014;fill:#FFFFFF;}
	.st717{opacity:0.707;fill:#FFFFFF;}
	.st718{opacity:0.7183;fill:#FFFFFF;}
	.st719{opacity:0.7239;fill:#FFFFFF;}
	.st720{opacity:0.7352;fill:#FFFFFF;}
	.st721{opacity:0.7408;fill:#FFFFFF;}
	.st722{opacity:0.7521;fill:#FFFFFF;}
	.st723{opacity:0.7577;fill:#FFFFFF;}
	.st724{opacity:0.769;fill:#FFFFFF;}
	.st725{opacity:0.7746;fill:#FFFFFF;}
	.st726{opacity:0.7859;fill:#FFFFFF;}
	.st727{opacity:0.7915;fill:#FFFFFF;}
	.st728{opacity:0.8028;fill:#FFFFFF;}
	.st729{opacity:0.8085;fill:#FFFFFF;}
	.st730{opacity:0.8197;fill:#FFFFFF;}
	.st731{opacity:0.8254;fill:#FFFFFF;}
	.st732{opacity:0.8366;fill:#FFFFFF;}
	.st733{opacity:0.8423;fill:#FFFFFF;}
	.st734{opacity:0.8535;fill:#FFFFFF;}
	.st735{opacity:0.8592;fill:#FFFFFF;}
	.st736{opacity:0.8704;fill:#FFFFFF;}
	.st737{opacity:0.8761;fill:#FFFFFF;}
	.st738{opacity:0.8873;fill:#FFFFFF;}
	.st739{opacity:0.893;fill:#FFFFFF;}
	.st740{opacity:0.9042;fill:#FFFFFF;}
	.st741{opacity:0.9099;fill:#FFFFFF;}
	.st742{opacity:0.9211;fill:#FFFFFF;}
	.st743{opacity:0.9268;fill:#FFFFFF;}
	.st744{opacity:0.938;fill:#FFFFFF;}
	.st745{opacity:0.9437;fill:#FFFFFF;}
	.st746{opacity:0.9549;fill:#FFFFFF;}
	.st747{opacity:0.9606;fill:#FFFFFF;}
	.st748{opacity:0.9718;fill:#FFFFFF;}
	.st749{opacity:0.9775;fill:#FFFFFF;}
	.st750{opacity:0.9887;fill:#FFFFFF;}
	.st751{opacity:0.9944;fill:#FFFFFF;}
	.st752{fill:none;stroke:#6945FF;stroke-width:15;stroke-miterlimit:10;}
	.st753{fill:none;stroke:#6945FF;stroke-width:12;stroke-miterlimit:10;}
</style>
<g>
	<g>
		<g>
			<circle class="st2" cx="28.6" cy="25.5" r="24.1"/>
			<circle class="st3" cx="28.8" cy="25.7" r="24.1"/>
			<circle class="st4" cx="28.9" cy="25.9" r="24.1"/>
			<circle class="st5" cx="29" cy="26.1" r="24.1"/>
			<circle class="st6" cx="29.2" cy="26.3" r="24.1"/>
			<circle class="st7" cx="29.3" cy="26.5" r="24.1"/>
			<circle class="st8" cx="29.5" cy="26.7" r="24.1"/>
			<circle class="st9" cx="29.6" cy="26.9" r="24.1"/>
			<circle class="st10" cx="29.7" cy="27.1" r="24.1"/>
			<circle class="st11" cx="29.9" cy="27.3" r="24.1"/>
			<circle class="st12" cx="30" cy="27.5" r="24.1"/>
			<circle class="st13" cx="30.1" cy="27.7" r="24.1"/>
			<circle class="st14" cx="30.3" cy="28" r="24.1"/>
			<circle class="st15" cx="30.4" cy="28.2" r="24.1"/>
			<circle class="st16" cx="30.6" cy="28.4" r="24.1"/>
			<circle class="st17" cx="30.7" cy="28.6" r="24.1"/>
			<circle class="st18" cx="30.8" cy="28.8" r="24.1"/>
			<circle class="st19" cx="31" cy="29" r="24.1"/>
			<circle class="st20" cx="31.1" cy="29.2" r="24.1"/>
			<circle class="st21" cx="31.2" cy="29.4" r="24.1"/>
			<circle class="st22" cx="31.4" cy="29.6" r="24.1"/>
			<circle class="st23" cx="31.5" cy="29.8" r="24.1"/>
			<circle class="st24" cx="31.7" cy="30" r="24.1"/>
			<circle class="st25" cx="31.8" cy="30.2" r="24.1"/>
			<circle class="st26" cx="31.9" cy="30.4" r="24.1"/>
			<circle class="st27" cx="32.1" cy="30.7" r="24.1"/>
			<circle class="st28" cx="32.2" cy="30.9" r="24.1"/>
			<circle class="st29" cx="32.3" cy="31.1" r="24.1"/>
			<circle class="st30" cx="32.5" cy="31.3" r="24.1"/>
			<circle class="st31" cx="32.6" cy="31.5" r="24.1"/>
			<circle class="st32" cx="32.8" cy="31.7" r="24.1"/>
			<circle class="st33" cx="32.9" cy="31.9" r="24.1"/>
			<circle class="st34" cx="33" cy="32.1" r="24.1"/>
			<circle class="st35" cx="33.2" cy="32.3" r="24.1"/>
			<circle class="st36" cx="33.3" cy="32.5" r="24.1"/>
			<circle class="st37" cx="33.4" cy="32.7" r="24.1"/>
			<circle class="st38" cx="33.6" cy="32.9" r="24.1"/>
			<circle class="st39" cx="33.7" cy="33.1" r="24.1"/>
			<circle class="st40" cx="33.9" cy="33.4" r="24.1"/>
			<circle class="st41" cx="34" cy="33.6" r="24.1"/>
			<circle class="st42" cx="34.1" cy="33.8" r="24.1"/>
			<circle class="st43" cx="34.3" cy="34" r="24.1"/>
			<circle class="st44" cx="34.4" cy="34.2" r="24.1"/>
			<circle class="st45" cx="34.5" cy="34.4" r="24.1"/>
			<circle class="st46" cx="34.7" cy="34.6" r="24.1"/>
			<circle class="st47" cx="34.8" cy="34.8" r="24.1"/>
			<circle class="st48" cx="35" cy="35" r="24.1"/>
			<circle class="st49" cx="35.1" cy="35.2" r="24.1"/>
			<circle class="st50" cx="35.2" cy="35.4" r="24.1"/>
			<circle class="st51" cx="35.4" cy="35.6" r="24.1"/>
			<circle class="st52" cx="35.5" cy="35.8" r="24.1"/>
			<circle class="st53" cx="35.6" cy="36.1" r="24.1"/>
			<circle class="st54" cx="35.8" cy="36.3" r="24.1"/>
			<circle class="st55" cx="35.9" cy="36.5" r="24.1"/>
			<circle class="st56" cx="36" cy="36.7" r="24.1"/>
			<circle class="st57" cx="36.2" cy="36.9" r="24.1"/>
			<circle class="st58" cx="36.3" cy="37.1" r="24.1"/>
			<circle class="st59" cx="36.5" cy="37.3" r="24.1"/>
			<circle class="st60" cx="36.6" cy="37.5" r="24.1"/>
			<circle class="st61" cx="36.7" cy="37.7" r="24.1"/>
			<circle class="st62" cx="36.9" cy="37.9" r="24.1"/>
			<circle class="st63" cx="37" cy="38.1" r="24.1"/>
			<circle class="st64" cx="37.1" cy="38.3" r="24.1"/>
			<circle class="st65" cx="37.3" cy="38.5" r="24.1"/>
			<circle class="st66" cx="37.4" cy="38.8" r="24.1"/>
			<circle class="st67" cx="37.6" cy="39" r="24.1"/>
			<circle class="st68" cx="37.7" cy="39.2" r="24.1"/>
			<circle class="st69" cx="37.8" cy="39.4" r="24.1"/>
			<circle class="st70" cx="38" cy="39.6" r="24.1"/>
			<circle class="st71" cx="38.1" cy="39.8" r="24.1"/>
			<circle class="st72" cx="38.2" cy="40" r="24.1"/>
			<circle class="st73" cx="38.4" cy="40.2" r="24.1"/>
			<circle class="st74" cx="38.5" cy="40.4" r="24.1"/>
			<circle class="st75" cx="38.7" cy="40.6" r="24.1"/>
			<circle class="st76" cx="38.8" cy="40.8" r="24.1"/>
			<circle class="st77" cx="38.9" cy="41" r="24.1"/>
			<circle class="st78" cx="39.1" cy="41.2" r="24.1"/>
			<circle class="st79" cx="39.2" cy="41.5" r="24.1"/>
			<circle class="st80" cx="39.3" cy="41.7" r="24.1"/>
			<circle class="st81" cx="39.5" cy="41.9" r="24.1"/>
			<circle class="st82" cx="39.6" cy="42.1" r="24.1"/>
			<circle class="st83" cx="39.8" cy="42.3" r="24.1"/>
			<circle class="st84" cx="39.9" cy="42.5" r="24.1"/>
			<circle class="st85" cx="40" cy="42.7" r="24.1"/>
			<circle class="st86" cx="40.2" cy="42.9" r="24.1"/>
			<circle class="st87" cx="40.3" cy="43.1" r="24.1"/>
			<circle class="st88" cx="40.4" cy="43.3" r="24.1"/>
			<circle class="st89" cx="40.6" cy="43.5" r="24.1"/>
			<circle class="st90" cx="40.7" cy="43.7" r="24.1"/>
			<circle class="st91" cx="40.9" cy="43.9" r="24.1"/>
			<circle class="st92" cx="41" cy="44.2" r="24.1"/>
			<circle class="st93" cx="41.1" cy="44.4" r="24.1"/>
			<circle class="st94" cx="41.3" cy="44.6" r="24.1"/>
			<circle class="st95" cx="41.4" cy="44.8" r="24.1"/>
			<circle class="st96" cx="41.5" cy="45" r="24.1"/>
			<circle class="st97" cx="41.7" cy="45.2" r="24.1"/>
			<circle class="st98" cx="41.8" cy="45.4" r="24.1"/>
			<circle class="st99" cx="41.9" cy="45.6" r="24.1"/>
			<circle class="st100" cx="42.1" cy="45.8" r="24.1"/>
			<circle class="st101" cx="42.2" cy="46" r="24.1"/>
			<circle class="st102" cx="42.4" cy="46.2" r="24.1"/>
			<circle class="st103" cx="42.5" cy="46.4" r="24.1"/>
			<circle class="st104" cx="42.6" cy="46.6" r="24.1"/>
			<circle class="st105" cx="42.8" cy="46.9" r="24.1"/>
			<circle class="st106" cx="42.9" cy="47.1" r="24.1"/>
			<circle class="st107" cx="43" cy="47.3" r="24.1"/>
			<circle class="st108" cx="43.2" cy="47.5" r="24.1"/>
			<circle class="st109" cx="43.3" cy="47.7" r="24.1"/>
			<circle class="st110" cx="43.5" cy="47.9" r="24.1"/>
			<circle class="st111" cx="43.6" cy="48.1" r="24.1"/>
			<circle class="st112" cx="43.7" cy="48.3" r="24.1"/>
			<circle class="st113" cx="43.9" cy="48.5" r="24.1"/>
			<circle class="st114" cx="44" cy="48.7" r="24.1"/>
			<circle class="st115" cx="44.1" cy="48.9" r="24.1"/>
			<circle class="st116" cx="44.3" cy="49.1" r="24.1"/>
			<circle class="st117" cx="44.4" cy="49.3" r="24.1"/>
			<circle class="st118" cx="44.6" cy="49.6" r="24.1"/>
			<circle class="st119" cx="44.7" cy="49.8" r="24.1"/>
			<circle class="st120" cx="44.8" cy="50" r="24.1"/>
			<circle class="st121" cx="45" cy="50.2" r="24.1"/>
			<circle class="st122" cx="45.1" cy="50.4" r="24.1"/>
			<circle class="st123" cx="45.2" cy="50.6" r="24.1"/>
			<circle class="st124" cx="45.4" cy="50.8" r="24.1"/>
			<circle class="st125" cx="45.5" cy="51" r="24.1"/>
			<circle class="st126" cx="45.7" cy="51.2" r="24.1"/>
			<circle class="st127" cx="45.8" cy="51.4" r="24.1"/>
			<circle class="st128" cx="45.9" cy="51.6" r="24.1"/>
			<circle class="st129" cx="46.1" cy="51.8" r="24.1"/>
			<circle class="st130" cx="46.2" cy="52" r="24.1"/>
			<circle class="st131" cx="46.3" cy="52.3" r="24.1"/>
			<circle class="st132" cx="46.5" cy="52.5" r="24.1"/>
			<circle class="st133" cx="46.6" cy="52.7" r="24.1"/>
			<circle class="st134" cx="46.8" cy="52.9" r="24.1"/>
			<circle class="st135" cx="46.9" cy="53.1" r="24.1"/>
			<circle class="st136" cx="47" cy="53.3" r="24.1"/>
			<circle class="st137" cx="47.2" cy="53.5" r="24.1"/>
			<circle class="st138" cx="47.3" cy="53.7" r="24.1"/>
			<circle class="st139" cx="47.4" cy="53.9" r="24.1"/>
			<circle class="st140" cx="47.6" cy="54.1" r="24.1"/>
			<circle class="st141" cx="47.7" cy="54.3" r="24.1"/>
			<circle class="st142" cx="47.8" cy="54.5" r="24.1"/>
			<circle class="st143" cx="48" cy="54.7" r="24.1"/>
			<circle class="st144" cx="48.1" cy="55" r="24.1"/>
			<circle class="st145" cx="48.3" cy="55.2" r="24.1"/>
			<circle class="st146" cx="48.4" cy="55.4" r="24.1"/>
			<circle class="st147" cx="48.5" cy="55.6" r="24.1"/>
			<circle class="st148" cx="48.7" cy="55.8" r="24.1"/>
			<circle class="st149" cx="48.8" cy="56" r="24.1"/>
			<circle class="st150" cx="48.9" cy="56.2" r="24.1"/>
			<circle class="st151" cx="49.1" cy="56.4" r="24.1"/>
			<circle class="st152" cx="49.2" cy="56.6" r="24.1"/>
			<circle class="st153" cx="49.4" cy="56.8" r="24.1"/>
			<circle class="st154" cx="49.5" cy="57" r="24.1"/>
			<circle class="st155" cx="49.6" cy="57.2" r="24.1"/>
			<circle class="st156" cx="49.8" cy="57.4" r="24.1"/>
			<circle class="st157" cx="49.9" cy="57.7" r="24.1"/>
			<circle class="st158" cx="50" cy="57.9" r="24.1"/>
			<circle class="st159" cx="50.2" cy="58.1" r="24.1"/>
			<circle class="st160" cx="50.3" cy="58.3" r="24.1"/>
			<circle class="st161" cx="50.5" cy="58.5" r="24.1"/>
			<circle class="st162" cx="50.6" cy="58.7" r="24.1"/>
			<circle class="st163" cx="50.7" cy="58.9" r="24.1"/>
			<circle class="st164" cx="50.9" cy="59.1" r="24.1"/>
			<circle class="st165" cx="51" cy="59.3" r="24.1"/>
			<circle class="st166" cx="51.1" cy="59.5" r="24.1"/>
			<circle class="st167" cx="51.3" cy="59.7" r="24.1"/>
			<circle class="st168" cx="51.4" cy="59.9" r="24.1"/>
			<circle class="st169" cx="51.6" cy="60.1" r="24.1"/>
			<circle class="st170" cx="51.7" cy="60.4" r="24.1"/>
			<circle class="st171" cx="51.8" cy="60.6" r="24.1"/>
			<circle class="st172" cx="52" cy="60.8" r="24.1"/>
			<circle class="st173" cx="52.1" cy="61" r="24.1"/>
			<circle class="st174" cx="52.2" cy="61.2" r="24.1"/>
			<circle class="st175" cx="52.4" cy="61.4" r="24.1"/>
			<circle class="st176" cx="52.5" cy="61.6" r="24.1"/>
			<circle class="st177" cx="52.7" cy="61.8" r="24.1"/>
			<circle class="st178" cx="52.8" cy="62" r="24.1"/>
			<circle class="st179" cx="52.9" cy="62.2" r="24.1"/>
			<circle class="st180" cx="53.1" cy="62.4" r="24.1"/>
			<circle class="st181" cx="53.2" cy="62.6" r="24.1"/>
			<circle class="st182" cx="53.3" cy="62.8" r="24.1"/>
			<circle class="st183" cx="53.5" cy="63.1" r="24.1"/>
			<circle class="st184" cx="53.6" cy="63.3" r="24.1"/>
			<circle class="st185" cx="53.7" cy="63.5" r="24.1"/>
			<circle class="st186" cx="53.9" cy="63.7" r="24.1"/>
			<circle class="st187" cx="54" cy="63.9" r="24.1"/>
			<circle class="st188" cx="54.2" cy="64.1" r="24.1"/>
			<circle class="st189" cx="54.3" cy="64.3" r="24.1"/>
			<circle class="st190" cx="54.4" cy="64.5" r="24.1"/>
			<circle class="st191" cx="54.6" cy="64.7" r="24.1"/>
			<circle class="st192" cx="54.7" cy="64.9" r="24.1"/>
			<circle class="st193" cx="54.8" cy="65.1" r="24.1"/>
			<circle class="st194" cx="55" cy="65.3" r="24.1"/>
			<circle class="st195" cx="55.1" cy="65.5" r="24.1"/>
			<circle class="st196" cx="55.3" cy="65.8" r="24.1"/>
			<circle class="st197" cx="55.4" cy="66" r="24.1"/>
			<circle class="st198" cx="55.5" cy="66.2" r="24.1"/>
			<circle class="st199" cx="55.7" cy="66.4" r="24.1"/>
			<circle class="st200" cx="55.8" cy="66.6" r="24.1"/>
			<circle class="st201" cx="55.9" cy="66.8" r="24.1"/>
			<circle class="st202" cx="56.1" cy="67" r="24.1"/>
			<circle class="st203" cx="56.2" cy="67.2" r="24.1"/>
			<circle class="st204" cx="56.4" cy="67.4" r="24.1"/>
			<circle class="st205" cx="56.5" cy="67.6" r="24.1"/>
			<circle class="st206" cx="56.6" cy="67.5" r="24.1"/>
			<circle class="st207" cx="56.7" cy="67.3" r="24.1"/>
			<circle class="st208" cx="56.8" cy="67.1" r="24.1"/>
			<circle class="st209" cx="56.9" cy="67" r="24.1"/>
			<circle class="st210" cx="57" cy="66.8" r="24.1"/>
			<circle class="st211" cx="57.1" cy="66.6" r="24.1"/>
			<circle class="st212" cx="57.3" cy="66.5" r="24.1"/>
			<circle class="st213" cx="57.4" cy="66.3" r="24.1"/>
			<circle class="st214" cx="57.5" cy="66.1" r="24.1"/>
			<circle class="st215" cx="57.6" cy="66" r="24.1"/>
			<circle class="st216" cx="57.7" cy="65.8" r="24.1"/>
			<circle class="st217" cx="57.8" cy="65.6" r="24.1"/>
			<circle class="st218" cx="57.9" cy="65.5" r="24.1"/>
			<circle class="st219" cx="58" cy="65.3" r="24.1"/>
			<circle class="st220" cx="58.1" cy="65.1" r="24.1"/>
			<circle class="st221" cx="58.2" cy="65" r="24.1"/>
			<circle class="st222" cx="58.3" cy="64.8" r="24.1"/>
			<circle class="st223" cx="58.5" cy="64.6" r="24.1"/>
			<circle class="st224" cx="58.6" cy="64.5" r="24.1"/>
			<circle class="st225" cx="58.7" cy="64.3" r="24.1"/>
			<circle class="st226" cx="58.8" cy="64.1" r="24.1"/>
			<circle class="st227" cx="58.9" cy="64" r="24.1"/>
			<circle class="st228" cx="59" cy="63.8" r="24.1"/>
			<circle class="st229" cx="59.1" cy="63.7" r="24.1"/>
			<circle class="st230" cx="59.2" cy="63.5" r="24.1"/>
			<circle class="st231" cx="59.3" cy="63.3" r="24.1"/>
			<circle class="st232" cx="59.4" cy="63.2" r="24.1"/>
			<circle class="st233" cx="59.6" cy="63" r="24.1"/>
			<circle class="st234" cx="59.7" cy="62.8" r="24.1"/>
			<circle class="st235" cx="59.8" cy="62.7" r="24.1"/>
			<circle class="st236" cx="59.9" cy="62.5" r="24.1"/>
			<circle class="st237" cx="60" cy="62.3" r="24.1"/>
			<circle class="st238" cx="60.1" cy="62.2" r="24.1"/>
			<circle class="st239" cx="60.2" cy="62" r="24.1"/>
			<circle class="st240" cx="60.3" cy="61.8" r="24.1"/>
			<circle class="st241" cx="60.4" cy="61.7" r="24.1"/>
			<circle class="st242" cx="60.5" cy="61.5" r="24.1"/>
			<circle class="st243" cx="60.6" cy="61.3" r="24.1"/>
			<circle class="st244" cx="60.8" cy="61.2" r="24.1"/>
			<circle class="st245" cx="60.9" cy="61" r="24.1"/>
			<circle class="st246" cx="61" cy="60.8" r="24.1"/>
			<circle class="st247" cx="61.1" cy="60.7" r="24.1"/>
			<circle class="st248" cx="61.2" cy="60.5" r="24.1"/>
			<circle class="st249" cx="61.3" cy="60.3" r="24.1"/>
			<circle class="st250" cx="61.4" cy="60.2" r="24.1"/>
			<circle class="st251" cx="61.5" cy="60" r="24.1"/>
			<circle class="st252" cx="61.6" cy="59.8" r="24.1"/>
			<circle class="st253" cx="61.7" cy="59.7" r="24.1"/>
			<circle class="st254" cx="61.8" cy="59.5" r="24.1"/>
			<circle class="st255" cx="62" cy="59.4" r="24.1"/>
			<circle class="st256" cx="62.1" cy="59.2" r="24.1"/>
			<circle class="st257" cx="62.2" cy="59" r="24.1"/>
			<circle class="st258" cx="62.3" cy="58.9" r="24.1"/>
			<circle class="st259" cx="62.4" cy="58.7" r="24.1"/>
			<circle class="st260" cx="62.5" cy="58.5" r="24.1"/>
			<circle class="st261" cx="62.6" cy="58.4" r="24.1"/>
			<circle class="st262" cx="62.7" cy="58.2" r="24.1"/>
			<circle class="st263" cx="62.8" cy="58" r="24.1"/>
			<circle class="st264" cx="62.9" cy="57.9" r="24.1"/>
			<circle class="st265" cx="63" cy="57.7" r="24.1"/>
			<circle class="st266" cx="63.2" cy="57.5" r="24.1"/>
			<circle class="st267" cx="63.3" cy="57.4" r="24.1"/>
			<circle class="st268" cx="63.4" cy="57.2" r="24.1"/>
			<circle class="st269" cx="63.5" cy="57" r="24.1"/>
			<circle class="st270" cx="63.6" cy="56.9" r="24.1"/>
			<circle class="st271" cx="63.7" cy="56.7" r="24.1"/>
			<circle class="st272" cx="63.8" cy="56.5" r="24.1"/>
			<circle class="st273" cx="63.9" cy="56.4" r="24.1"/>
			<circle class="st274" cx="64" cy="56.2" r="24.1"/>
			<circle class="st275" cx="64.1" cy="56" r="24.1"/>
			<circle class="st276" cx="64.2" cy="55.9" r="24.1"/>
			<circle class="st277" cx="64.4" cy="55.7" r="24.1"/>
			<circle class="st278" cx="64.5" cy="55.6" r="24.1"/>
			<circle class="st279" cx="64.6" cy="55.4" r="24.1"/>
			<circle class="st280" cx="64.7" cy="55.2" r="24.1"/>
			<circle class="st281" cx="64.8" cy="55.1" r="24.1"/>
			<circle class="st282" cx="64.9" cy="54.9" r="24.1"/>
			<circle class="st283" cx="65" cy="54.7" r="24.1"/>
			<circle class="st284" cx="65.1" cy="54.6" r="24.1"/>
			<circle class="st285" cx="65.2" cy="54.4" r="24.1"/>
			<circle class="st286" cx="65.3" cy="54.2" r="24.1"/>
			<circle class="st287" cx="65.4" cy="54.1" r="24.1"/>
			<circle class="st288" cx="65.6" cy="53.9" r="24.1"/>
			<circle class="st289" cx="65.7" cy="53.7" r="24.1"/>
			<circle class="st290" cx="65.8" cy="53.6" r="24.1"/>
			<circle class="st291" cx="65.9" cy="53.4" r="24.1"/>
			<circle class="st292" cx="66" cy="53.2" r="24.1"/>
			<circle class="st293" cx="66.1" cy="53.1" r="24.1"/>
			<circle class="st294" cx="66.2" cy="52.9" r="24.1"/>
			<circle class="st295" cx="66.3" cy="52.7" r="24.1"/>
			<circle class="st296" cx="66.4" cy="52.6" r="24.1"/>
			<circle class="st297" cx="66.5" cy="52.4" r="24.1"/>
			<circle class="st298" cx="66.7" cy="52.2" r="24.1"/>
			<circle class="st299" cx="66.8" cy="52.1" r="24.1"/>
			<circle class="st300" cx="66.9" cy="51.9" r="24.1"/>
			<circle class="st301" cx="67" cy="51.7" r="24.1"/>
			<circle class="st302" cx="67.1" cy="51.6" r="24.1"/>
			<circle class="st303" cx="67.2" cy="51.4" r="24.1"/>
			<circle class="st304" cx="67.3" cy="51.3" r="24.1"/>
			<circle class="st305" cx="67.4" cy="51.1" r="24.1"/>
			<circle class="st306" cx="67.5" cy="50.9" r="24.1"/>
			<circle class="st307" cx="67.6" cy="50.8" r="24.1"/>
			<circle class="st308" cx="67.7" cy="50.6" r="24.1"/>
			<circle class="st309" cx="67.9" cy="50.4" r="24.1"/>
			<circle class="st310" cx="68" cy="50.3" r="24.1"/>
			<circle class="st311" cx="68.1" cy="50.1" r="24.1"/>
			<circle class="st312" cx="68.2" cy="49.9" r="24.1"/>
			<circle class="st313" cx="68.3" cy="49.8" r="24.1"/>
			<circle class="st314" cx="68.4" cy="49.6" r="24.1"/>
			<circle class="st315" cx="68.5" cy="49.4" r="24.1"/>
			<circle class="st316" cx="68.6" cy="49.3" r="24.1"/>
			<circle class="st317" cx="68.7" cy="49.1" r="24.1"/>
			<circle class="st318" cx="68.8" cy="48.9" r="24.1"/>
			<circle class="st319" cx="68.9" cy="48.8" r="24.1"/>
			<circle class="st320" cx="69.1" cy="48.6" r="24.1"/>
			<circle class="st321" cx="69.2" cy="48.4" r="24.1"/>
			<circle class="st322" cx="69.3" cy="48.3" r="24.1"/>
			<circle class="st323" cx="69.4" cy="48.1" r="24.1"/>
			<circle class="st324" cx="69.5" cy="47.9" r="24.1"/>
			<circle class="st325" cx="69.6" cy="47.8" r="24.1"/>
			<circle class="st326" cx="69.7" cy="47.6" r="24.1"/>
			<circle class="st327" cx="69.8" cy="47.4" r="24.1"/>
			<circle class="st328" cx="69.9" cy="47.3" r="24.1"/>
			<circle class="st329" cx="70" cy="47.1" r="24.1"/>
			<circle class="st330" cx="70.1" cy="47" r="24.1"/>
			<circle class="st331" cx="70.3" cy="46.8" r="24.1"/>
			<circle class="st332" cx="70.4" cy="46.6" r="24.1"/>
			<circle class="st333" cx="70.5" cy="46.5" r="24.1"/>
			<circle class="st334" cx="70.6" cy="46.3" r="24.1"/>
			<circle class="st335" cx="70.7" cy="46.1" r="24.1"/>
			<circle class="st336" cx="70.8" cy="46" r="24.1"/>
			<circle class="st337" cx="70.9" cy="45.8" r="24.1"/>
			<circle class="st338" cx="71" cy="45.6" r="24.1"/>
			<circle class="st339" cx="71.1" cy="45.5" r="24.1"/>
			<circle class="st340" cx="71.2" cy="45.3" r="24.1"/>
			<circle class="st341" cx="71.3" cy="45.1" r="24.1"/>
			<circle class="st342" cx="71.5" cy="45" r="24.1"/>
			<circle class="st343" cx="71.6" cy="44.8" r="24.1"/>
			<circle class="st344" cx="71.7" cy="44.6" r="24.1"/>
			<circle class="st345" cx="71.8" cy="44.5" r="24.1"/>
			<circle class="st346" cx="71.9" cy="44.3" r="24.1"/>
			<circle class="st347" cx="72" cy="44.1" r="24.1"/>
			<circle class="st348" cx="72.1" cy="44" r="24.1"/>
			<circle class="st349" cx="72.2" cy="43.8" r="24.1"/>
			<circle class="st350" cx="72.3" cy="43.6" r="24.1"/>
			<circle class="st351" cx="72.4" cy="43.5" r="24.1"/>
			<circle class="st352" cx="72.5" cy="43.3" r="24.1"/>
			<circle class="st353" cx="72.7" cy="43.2" r="24.1"/>
			<circle class="st354" cx="72.8" cy="43" r="24.1"/>
			<circle class="st355" cx="72.9" cy="42.8" r="24.1"/>
			<circle class="st356" cx="73" cy="42.7" r="24.1"/>
			<circle class="st357" cx="73.1" cy="42.5" r="24.1"/>
			<circle class="st358" cx="73.2" cy="42.3" r="24.1"/>
			<circle class="st359" cx="73.3" cy="42.2" r="24.1"/>
			<circle class="st360" cx="73.4" cy="42" r="24.1"/>
			<circle class="st361" cx="73.5" cy="41.8" r="24.1"/>
			<circle class="st362" cx="73.6" cy="41.7" r="24.1"/>
			<circle class="st363" cx="73.8" cy="41.5" r="24.1"/>
			<circle class="st364" cx="73.9" cy="41.3" r="24.1"/>
			<circle class="st365" cx="74" cy="41.2" r="24.1"/>
			<circle class="st366" cx="74.1" cy="41" r="24.1"/>
			<circle class="st367" cx="74.2" cy="40.8" r="24.1"/>
			<circle class="st368" cx="74.3" cy="40.7" r="24.1"/>
			<circle class="st369" cx="74.4" cy="40.5" r="24.1"/>
			<circle class="st370" cx="74.5" cy="40.3" r="24.1"/>
			<circle class="st371" cx="74.6" cy="40.2" r="24.1"/>
			<circle class="st372" cx="74.7" cy="40" r="24.1"/>
			<circle class="st373" cx="74.8" cy="39.8" r="24.1"/>
			<circle class="st374" cx="75" cy="39.7" r="24.1"/>
			<circle class="st375" cx="75.1" cy="39.5" r="24.1"/>
			<circle class="st376" cx="75.2" cy="39.3" r="24.1"/>
			<circle class="st377" cx="75.3" cy="39.2" r="24.1"/>
			<circle class="st378" cx="75.4" cy="39" r="24.1"/>
			<circle class="st379" cx="75.5" cy="38.9" r="24.1"/>
			<circle class="st380" cx="75.6" cy="38.7" r="24.1"/>
			<circle class="st381" cx="75.7" cy="38.5" r="24.1"/>
			<circle class="st382" cx="75.8" cy="38.4" r="24.1"/>
			<circle class="st383" cx="75.9" cy="38.2" r="24.1"/>
			<circle class="st384" cx="76" cy="38" r="24.1"/>
			<circle class="st385" cx="76.2" cy="37.9" r="24.1"/>
			<circle class="st386" cx="76.3" cy="37.7" r="24.1"/>
			<circle class="st387" cx="76.4" cy="37.5" r="24.1"/>
			<circle class="st388" cx="76.5" cy="37.4" r="24.1"/>
			<circle class="st389" cx="76.6" cy="37.2" r="24.1"/>
			<circle class="st390" cx="76.7" cy="37" r="24.1"/>
			<circle class="st391" cx="76.8" cy="36.9" r="24.1"/>
			<circle class="st392" cx="76.9" cy="36.7" r="24.1"/>
			<circle class="st393" cx="77" cy="36.5" r="24.1"/>
			<circle class="st394" cx="77.1" cy="36.4" r="24.1"/>
			<circle class="st395" cx="77.2" cy="36.2" r="24.1"/>
			<circle class="st396" cx="77.4" cy="36" r="24.1"/>
			<circle class="st397" cx="77.5" cy="35.9" r="24.1"/>
			<circle class="st398" cx="77.6" cy="35.7" r="24.1"/>
			<circle class="st399" cx="77.7" cy="35.5" r="24.1"/>
			<circle class="st400" cx="77.8" cy="35.4" r="24.1"/>
			<circle class="st401" cx="77.9" cy="35.2" r="24.1"/>
			<circle class="st402" cx="78" cy="35.1" r="24.1"/>
			<circle class="st403" cx="78.1" cy="34.9" r="24.1"/>
			<circle class="st404" cx="78.2" cy="34.7" r="24.1"/>
			<circle class="st405" cx="78.3" cy="34.6" r="24.1"/>
			<circle class="st406" cx="78.4" cy="34.4" r="24.1"/>
			<circle class="st407" cx="78.6" cy="34.2" r="24.1"/>
			<circle class="st408" cx="78.7" cy="34.1" r="24.1"/>
			<circle class="st409" cx="78.8" cy="33.9" r="24.1"/>
			<circle class="st410" cx="78.9" cy="33.7" r="24.1"/>
			<circle class="st411" cx="79" cy="33.6" r="24.1"/>
			<circle class="st412" cx="79.1" cy="33.4" r="24.1"/>
			<circle class="st413" cx="79.2" cy="33.2" r="24.1"/>
			<circle class="st414" cx="79.3" cy="33.1" r="24.1"/>
			<circle class="st415" cx="79.4" cy="32.9" r="24.1"/>
			<circle class="st416" cx="79.5" cy="32.7" r="24.1"/>
			<circle class="st417" cx="79.6" cy="32.6" r="24.1"/>
			<circle class="st418" cx="79.8" cy="32.4" r="24.1"/>
			<circle class="st419" cx="79.9" cy="32.2" r="24.1"/>
			<circle class="st420" cx="80" cy="32.1" r="24.1"/>
			<circle class="st421" cx="80.1" cy="31.9" r="24.1"/>
			<circle class="st422" cx="80.2" cy="31.7" r="24.1"/>
			<circle class="st423" cx="80.3" cy="31.6" r="24.1"/>
			<circle class="st424" cx="80.4" cy="31.4" r="24.1"/>
			<circle class="st425" cx="80.5" cy="31.2" r="24.1"/>
			<circle class="st426" cx="80.6" cy="31.1" r="24.1"/>
			<circle class="st427" cx="80.7" cy="30.9" r="24.1"/>
			<circle class="st428" cx="80.9" cy="30.8" r="24.1"/>
			<circle class="st429" cx="81" cy="30.6" r="24.1"/>
			<circle class="st430" cx="81.1" cy="30.4" r="24.1"/>
			<circle class="st431" cx="81.2" cy="30.3" r="24.1"/>
			<circle class="st432" cx="81.3" cy="30.1" r="24.1"/>
			<circle class="st433" cx="81.4" cy="29.9" r="24.1"/>
			<circle class="st434" cx="81.5" cy="29.8" r="24.1"/>
			<circle class="st435" cx="81.6" cy="29.6" r="24.1"/>
			<circle class="st436" cx="81.7" cy="29.4" r="24.1"/>
			<circle class="st437" cx="81.8" cy="29.3" r="24.1"/>
			<circle class="st438" cx="81.9" cy="29.1" r="24.1"/>
			<circle class="st439" cx="82.1" cy="28.9" r="24.1"/>
			<circle class="st440" cx="82.2" cy="28.8" r="24.1"/>
			<circle class="st441" cx="82.3" cy="28.6" r="24.1"/>
			<circle class="st442" cx="82.4" cy="28.4" r="24.1"/>
			<circle class="st443" cx="82.5" cy="28.3" r="24.1"/>
			<circle class="st444" cx="82.6" cy="28.1" r="24.1"/>
			<circle class="st445" cx="82.7" cy="27.9" r="24.1"/>
			<circle class="st446" cx="82.8" cy="27.8" r="24.1"/>
			<circle class="st447" cx="82.9" cy="27.6" r="24.1"/>
			<circle class="st448" cx="83" cy="27.4" r="24.1"/>
			<circle class="st449" cx="83.1" cy="27.3" r="24.1"/>
			<circle class="st450" cx="83.3" cy="27.1" r="24.1"/>
			<circle class="st451" cx="83.4" cy="26.9" r="24.1"/>
			<circle class="st452" cx="83.5" cy="26.8" r="24.1"/>
			<circle class="st453" cx="83.6" cy="26.6" r="24.1"/>
			<circle class="st454" cx="83.7" cy="26.5" r="24.1"/>
			<circle class="st455" cx="83.8" cy="26.3" r="24.1"/>
			<circle class="st456" cx="83.9" cy="26.1" r="24.1"/>
			<circle class="st457" cx="84" cy="26" r="24.1"/>
			<circle class="st458" cx="84.1" cy="25.8" r="24.1"/>
			<circle class="st459" cx="84.2" cy="25.6" r="24.1"/>
			<circle class="st1" cx="84.3" cy="25.5" r="24.1"/>
		</g>
	</g>
	<g>
		<g>
			<path d="M174.4,24.6c-1-1-2.1-1.5-3.4-1.5c-2.9,0-4.3,1.6-4.9,3l-11.9,30.2l-11.9-30.2c-0.6-1.3-2-2.9-4.9-2.9
				c-1.3,0-2.4,0.5-3.4,1.5c-1,1-1.5,2.1-1.5,3.2c0,1,0.2,1.9,0.5,2.7L148,66.1c0.5,1,1.2,1.9,2.2,2.7c1,0.8,2.3,1.2,3.6,1.2h0.9
				c1.4,0,2.6-0.4,3.6-1.2c1-0.7,1.7-1.6,2.2-2.7l14.8-35.5c0.3-0.8,0.5-1.8,0.5-2.9C175.9,26.7,175.4,25.7,174.4,24.6z"/>
			<path d="M217.9,29.3c-4.2-4.4-9.8-6.6-16.8-6.6c-7,0-12.6,2.2-16.8,6.6c-4.2,4.4-6.3,10.2-6.3,17.2c0,7.1,2.1,12.9,6.3,17.2
				c4.1,4.4,9.8,6.6,16.8,6.6c6.9,0,12.6-2.2,16.8-6.6c4.2-4.4,6.3-10.2,6.3-17.2C224.2,39.5,222.1,33.7,217.9,29.3z M209.8,57.6
				c-1.2,1.1-2.6,1.9-4.1,2.4c-1.5,0.5-3.1,0.8-4.5,0.8c-1.5,0-3-0.3-4.5-0.8c-1.5-0.5-2.9-1.3-4.1-2.4c-1.2-1.1-2.2-2.6-3-4.4
				c-0.8-1.8-1.2-4.1-1.2-6.7c0-2.6,0.4-4.9,1.2-6.7c2.2-5.1,6-7.5,11.7-7.5c3.5,0,6.3,1,8.6,3.2c2.8,2.6,4.2,6.2,4.2,11
				C213.9,51.4,212.5,55.1,209.8,57.6z"/>
			<path d="M290,24.6c-1-1-2.1-1.5-3.4-1.5c-3.4,0-4.5,2-4.9,3.2l-8.8,29l-8.7-28.2c-0.4-1.2-1-2.1-2-2.8c-1-0.7-2.1-1.1-3.3-1.1
				c-1.2,0-2.4,0.4-3.3,1.1c-1,0.7-1.7,1.7-2,2.9l-8.7,28.2L236,26.3c-0.4-1.5-1.6-3.2-4.9-3.2c-1.3,0-2.5,0.5-3.4,1.5
				c-1,1-1.5,2-1.5,3.1c0,0.9,0.1,1.7,0.3,2.3l12.1,35.5c0.4,1.2,1.2,2.2,2.3,3.1c1.1,0.9,2.4,1.3,3.8,1.3c1.4,0,2.7-0.4,3.8-1.3
				c1.1-0.8,1.9-1.9,2.4-3.2l7.9-24.5l7.9,24.6c0.5,1.2,1.3,2.3,2.4,3.1c1.1,0.9,2.4,1.3,3.8,1.3c1.4,0,2.7-0.4,3.8-1.3
				c1.1-0.9,1.9-1.9,2.3-3.1L291.2,30c0.2-0.6,0.3-1.4,0.3-2.3C291.5,26.6,291,25.6,290,24.6z"/>
		</g>
		<g>
			<path d="M297.3,14.5c0.3-0.7,0.8-1.4,1.3-1.9c0.6-0.5,1.2-1,2-1.3c0.7-0.3,1.5-0.5,2.4-0.5c0.8,0,1.6,0.2,2.4,0.5
				c0.7,0.3,1.4,0.7,2,1.3c0.6,0.5,1,1.2,1.3,1.9c0.3,0.7,0.5,1.6,0.5,2.4c0,0.9-0.2,1.7-0.5,2.5c-0.3,0.8-0.8,1.4-1.3,2
				c-0.6,0.6-1.2,1-2,1.3c-0.7,0.3-1.5,0.5-2.4,0.5c-0.8,0-1.6-0.2-2.4-0.5c-0.8-0.3-1.4-0.7-2-1.3c-0.6-0.6-1-1.2-1.3-2
				c-0.3-0.7-0.5-1.6-0.5-2.5C296.8,16.1,297,15.3,297.3,14.5z M298.3,19.1c0.3,0.6,0.6,1.2,1.1,1.7c0.5,0.5,1,0.8,1.6,1.1
				c0.6,0.3,1.3,0.4,2,0.4c0.7,0,1.4-0.1,2-0.4c0.6-0.3,1.1-0.6,1.6-1.1c0.5-0.5,0.8-1,1.1-1.7c0.3-0.6,0.4-1.3,0.4-2.1
				c0-0.7-0.1-1.4-0.4-2.1c-0.3-0.6-0.6-1.2-1.1-1.7c-0.5-0.5-1-0.8-1.6-1.1c-0.6-0.3-1.3-0.4-2-0.4c-0.7,0-1.4,0.1-2,0.4
				c-0.6,0.3-1.2,0.6-1.6,1.1c-0.5,0.5-0.8,1-1.1,1.7c-0.3,0.6-0.4,1.3-0.4,2.1C297.9,17.7,298.1,18.4,298.3,19.1z M303.4,13.4
				c0.9,0,1.5,0.2,1.9,0.5c0.4,0.3,0.6,0.9,0.6,1.5c0,0.6-0.2,1.1-0.5,1.4c-0.4,0.3-0.8,0.5-1.3,0.5l2.1,3.2h-1.2l-2-3.1h-1.2v3.1
				h-1.1v-7.2H303.4z M302.9,16.6c0.3,0,0.5,0,0.7,0c0.2,0,0.4-0.1,0.6-0.1c0.2-0.1,0.3-0.2,0.4-0.4c0.1-0.2,0.2-0.4,0.2-0.7
				c0-0.2,0-0.4-0.1-0.6c-0.1-0.1-0.2-0.3-0.4-0.3c-0.1-0.1-0.3-0.1-0.5-0.2c-0.2,0-0.4,0-0.6,0h-1.5v2.3H302.9z"/>
		</g>
	</g>
</g>
</svg>
